<?xml version="1.0" encoding="UTF-8"?>
<!DOCTYPE svg PUBLIC "-//W3C//DTD SVG 1.1//EN" "http://www.w3.org/Graphics/SVG/1.1/DTD/svg11.dtd">
<svg version="1.1" xmlns="http://www.w3.org/2000/svg" xmlns:xlink="http://www.w3.org/1999/xlink" x="0" y="0" width="300" height="200" viewBox="0, 0, 300, 200">
  <g id="Layer_1">
    <path d="M161.991,86.223 C161.192,85.127 166.468,77.315 168.435,76.736 C171.941,75.705 175.627,50.534 174.76,47.933 C174.256,46.422 172.609,46.429 172.01,44.633 C171.529,43.189 172.561,41.615 172.285,40.234 C172.028,38.948 169.03,39.515 167.885,39.134 C166.831,38.782 166.798,36.421 166.511,35.559 C165.88,33.668 163.238,32.575 162.111,30.885 C160.319,28.197 158.052,24.193 154.824,23.117 C153.748,22.758 153.311,22.727 152.212,22.36 C151.098,21.989 144.503,21.953 143.585,23.013 C138.945,28.375 136.285,27.806 128.221,31.263 C126.777,31.881 124.265,38.271 122.515,39.684 C113.014,47.354 111.034,55.768 108.217,66.356 C107.698,68.304 109.168,70.927 108.492,72.955 C108.064,74.238 107.74,77.573 108.217,79.005 C110.072,84.57 113.894,89.436 115.641,94.678 C118.651,103.707 115.06,102.744 113.441,107.602 C113.075,108.699 113.475,113.857 114.541,116.126 C115.309,117.76 116.774,119.263 118.666,120.25 C121.828,121.9 130.317,111.761 131.933,110.145 C133.254,108.824 134.92,106.902 136.058,105.196 C137.083,103.657 142.688,97.803 144.822,99.937 C145.61,100.724 148.635,107.355 149.256,108.598 C150.234,110.555 152.243,112.888 153.037,114.476 C153.643,115.688 143.245,127.396 141.213,129.874 C136.676,135.408 135.918,146.783 137.707,153.762 C138.738,157.784 147.306,157.627 147.091,157.99 C145.132,161.29 136.47,174.798 142.863,178.544 C146.389,180.611 149.565,172.529 149.737,168.095 C149.838,165.508 152.839,163.671 153.69,161.393 C157.505,151.185 159.604,156.477 167.301,152.628 C169.57,151.494 168.985,156.444 168.985,157.096 C168.985,161.35 165.329,167.617 171.116,170.158 C179.572,173.87 176.169,153.453 177.097,145.926 C177.531,142.404 181.28,149.167 184.212,146.235 C185.479,144.968 186.561,141.56 187.099,139.945 C187.913,137.504 187.442,135.306 188.508,133.174 C189.833,130.525 189.134,125.358 190.502,122.622 C193.905,115.816 192.138,115.973 192.977,112.62 C193.303,111.314 191.686,108.491 191.121,107.361 C190.123,105.367 187.982,103.806 185.965,103.133 C181.529,101.655 183.181,97.359 176.135,98.253 C174.151,98.504 170.814,105.887 168.435,104.302 C162.772,100.526 165.316,90.579 164.285,89.239 L161.991,86.223 z" fill-opacity="0" stroke="#000000" stroke-width="1" stroke-linecap="round" stroke-linejoin="round"/>
  </g>
</svg>
