<?xml version="1.0" encoding="UTF-8"?>
<!DOCTYPE svg PUBLIC "-//W3C//DTD SVG 1.1//EN" "http://www.w3.org/Graphics/SVG/1.1/DTD/svg11.dtd">
<svg version="1.1" xmlns="http://www.w3.org/2000/svg" xmlns:xlink="http://www.w3.org/1999/xlink" x="0" y="0" width="300" height="200" viewBox="0, 0, 300, 200">
  <g id="Layer_1">
    <path d="M104.291,87.313 C109.528,86.645 121.095,79.828 122.378,80.185 C123.286,80.437 124.129,85.982 124.647,85.982 C125.258,85.982 128.955,84.699 129.537,84.117 C129.801,83.853 145.049,78.543 147.08,77.866 C151.732,76.315 155.975,76.564 160.691,74.993 C163.266,74.134 167.06,73.094 169.731,72.203 C175.769,70.191 181.442,67.353 188.316,65.062 C190.734,64.255 197.046,62.892 199.155,61.331 C203.036,58.458 213.034,54.117 218.613,52.257 C219.166,52.073 221.393,52.482 222.159,53.114 C223.503,54.223 221.772,54.761 226.881,56.038 C231.047,57.08 236.678,56.609 241.248,56.609 C242.496,56.609 248.692,56.055 249.263,56.592 C252.438,59.581 237.921,65.314 232.88,64.406 C230.727,64.019 226.256,64.507 225.217,64.507 C222.58,64.507 219.827,61.899 218.933,62.793 C217.674,64.052 218.61,68.065 217.756,69.347 C216.775,70.819 216.031,73.574 214.58,74.589 C214.076,74.942 213.287,78.146 213.287,78.925 C213.287,79.893 211.18,87.528 210.598,87.528 C209.65,87.528 210.175,97.132 209.791,98.283 C209.503,99.147 200.415,103.525 197.995,106.752 C197.797,107.016 197.088,111.077 197.088,112.095 C197.088,114.148 194.783,120.013 193.122,121.673 C192.643,122.152 184.349,120.669 186.401,116.565 C187.11,115.147 189.843,111.888 189.089,110.381 C188.853,109.909 185.624,112.786 184.787,113.204 C184.23,113.483 177.625,116.688 177.125,117.439 C174.085,121.998 175.713,133.57 171.58,134.679 C166.22,136.117 170.766,118.178 170,118.178 C167.318,118.178 162.16,119.069 159.582,120.06 C156.96,121.068 152.695,121.76 148.693,122.581 C144.761,123.387 140.98,123.589 135.384,125.757 C133.548,126.468 132.159,127.168 130.545,127.168 C126.599,127.168 122.3,128.442 119.404,129.89 C119.336,129.925 118.179,131.318 118.11,131.352 C118.11,131.352 118.11,131.352 118.11,131.352 C117.001,131.907 117.035,136.494 116.783,140.678 C116.624,143.317 116.576,145.938 117.236,148.139 C117.539,149.147 119.173,153.622 119.152,153.684 C118.826,154.664 114.635,154.481 114.615,154.474 C109.271,152.727 112.427,133.55 111.288,132.411 C110.687,131.81 108.969,133.167 107.894,132.965 C107.774,132.943 107.759,130.546 106.549,130.546 C100.849,130.546 96.366,131.504 94.854,132.361 C94.325,132.66 92.953,141.369 88.804,145.518 C88.353,145.969 87.274,147.024 86.922,147.215 C85.78,147.837 86.233,149.551 88.267,148.29 C89.407,147.584 92.332,144.055 93.846,144.812 C97.11,146.444 91.074,150.103 89.359,153.533 C88.435,155.38 86.987,157.568 86.082,158.474 C84.894,159.662 81.875,160.216 81.344,159.784 C80.537,159.129 80.235,157.969 79.982,156.86 C79.942,156.684 79.537,155.103 79.529,155.096 C77.462,153.432 80.934,143.069 81.444,141.838 C83.158,137.704 87.528,130.859 85.679,131.352 C83.41,131.957 83.31,131.554 80.739,131.89 C77.92,132.259 76.706,133.268 74.689,131.756 C72.098,129.812 74.893,123.233 72.673,121.136 C72.068,120.564 70.854,121.657 70.455,121.875 C67.128,123.69 62.42,128.529 57.65,128.529 C55.21,128.529 55.13,123.636 55.13,122.077 C55.13,117.206 52.765,120.427 51.299,116.027 C51.188,115.696 51.903,114.414 53.214,113.103 C54.113,112.205 53.712,109.843 53.799,109.252 C54.305,105.813 53.517,105.945 53.718,102.416 C53.754,101.794 55.872,101.348 56.743,100.4 C60.171,96.669 65.898,90.378 70.253,85.377 C72.539,82.753 68.011,81.167 70.898,78.279 C73.248,75.93 74.822,77.491 76.975,76.774 C78.91,76.129 78.551,74.776 79.932,74.085 C81.269,73.417 83.626,72.004 84.772,70.859 C87.393,68.238 91.1,65.565 94.451,63.331 C94.63,63.211 95.509,62.313 95.509,61.886 C95.509,61.12 94.55,59.109 93.946,57.298 C92.682,53.504 94.208,42.441 97.677,41.284 C100.561,40.323 100.062,42.88 101.172,43.435 C102.145,43.921 102.593,44.283 104.684,44.847 C107.86,45.704 99.814,55.171 102.718,56.139 C103.293,56.33 107.287,51.323 107.809,50.644 C108.818,49.333 109.644,47.593 111.994,46.258 C114.786,44.672 117.589,43.738 116.682,47.014 C116.243,48.6 112.498,53.82 107.507,58.306 C106.452,59.255 104.748,61.441 104.533,62.087 C103.672,64.67 103.474,73.48 103.474,75.698 L104.291,87.313 z" fill-opacity="0" stroke="#000000" stroke-width="1" stroke-linecap="round" stroke-linejoin="round"/>
  </g>
</svg>
