<?xml version="1.0" encoding="UTF-8"?>
<!DOCTYPE svg PUBLIC "-//W3C//DTD SVG 1.1//EN" "http://www.w3.org/Graphics/SVG/1.1/DTD/svg11.dtd">
<svg version="1.1" xmlns="http://www.w3.org/2000/svg" xmlns:xlink="http://www.w3.org/1999/xlink" x="0" y="0" width="300" height="200" viewBox="0, 0, 300, 200">
  <g id="Layer_1">
    <path d="M110.923,36.634 C109.688,37.663 108.796,39.447 108.247,41.917 L107.355,45.691 L104.336,45.828 C102.689,45.828 88.485,46.103 72.841,46.377 C47.658,46.789 44.227,46.995 43.061,47.955 C41.963,48.985 41.826,49.808 42.237,55.092 C42.512,58.866 42.443,61.61 41.963,62.434 C41.139,64.081 42.1,76.569 43.404,80.823 C44.227,83.431 44.57,83.705 46.766,83.911 C48.893,84.117 49.236,84.391 49.785,86.656 C50.266,88.577 50.883,89.4 52.393,89.881 C53.422,90.292 54.314,90.91 54.314,91.253 C54.314,92.488 58.294,94.066 62.342,94.478 C66.116,94.821 69.135,94.478 83.751,91.733 C86.976,91.116 89.789,90.841 90.064,91.116 C90.407,91.459 90.818,95.096 91.093,99.213 C91.367,104.153 91.985,107.721 92.808,109.505 C93.495,111.015 94.181,113.76 94.249,115.681 L94.455,119.112 L97.543,119.455 C101.591,119.935 101.729,121.102 98.641,126.248 C97.269,128.444 95.416,131.943 94.524,133.933 C93.632,135.992 91.779,139.423 90.475,141.618 C89.103,143.883 87.799,146.627 87.525,147.794 C87.319,149.029 86.77,150.401 86.358,150.882 C85.535,151.911 87.593,163.164 88.897,164.537 C89.309,164.948 90.475,165.566 91.436,165.772 C93.083,166.183 93.357,165.977 94.044,163.85 C94.524,162.478 95.896,160.076 97.131,158.43 C98.435,156.783 99.533,154.861 99.67,154.107 C100.15,151.636 101.66,152.117 101.66,154.861 C101.66,157.606 102.895,162.547 103.924,163.85 C104.268,164.331 105.571,164.742 106.806,164.742 C110.512,164.742 113.737,159.596 110.58,158.773 C108.796,158.292 108.865,157.469 110.923,154.107 C111.815,152.597 112.639,150.813 112.639,150.195 C112.639,149.578 113.256,147.588 114.08,145.735 C114.835,143.951 115.864,140.452 116.276,137.982 L117.099,133.521 L120.53,133.453 C129.313,133.247 144.477,132.355 150.035,131.806 C153.466,131.463 160.465,131.188 165.749,131.188 C181.119,131.188 195.529,129.885 198.548,128.307 C200.538,127.277 201.155,127.14 201.636,127.826 C201.91,128.307 202.39,133.316 202.665,139.011 C203.145,150.401 203.969,155.822 205.615,158.292 C206.919,160.282 207.4,160.351 209.458,158.635 C210.83,157.538 211.173,156.44 211.517,152.323 C212.066,145.529 211.517,140.04 210.419,140.452 C209.733,140.726 209.527,138.874 209.458,132.286 L209.321,123.709 L211.242,123.366 C213.644,122.886 214.193,123.229 214.193,125.287 C214.193,129.542 216.388,136.06 219.476,140.658 C220.3,141.961 221.535,144.637 222.152,146.627 C222.77,148.617 223.868,150.813 224.554,151.431 C225.789,152.528 225.926,152.528 227.436,151.087 C228.877,149.784 229.014,149.235 228.534,146.01 C227.848,140.589 223.936,127.62 222.427,125.493 C221.672,124.464 221.054,123.435 221.054,123.229 C221.054,122.68 222.495,121.376 224.142,120.415 C224.897,120.004 225.652,118.906 225.858,118.014 C226.132,116.847 227.093,116.093 229.014,115.406 C232.514,108.339 234.778,108.133 236.699,109.094 C237.317,109.437 242.051,110.191 247.129,110.809 L256.392,111.907 L259.343,108.751 C264.626,102.987 264.078,100.173 257.696,99.487 C251.658,98.801 246.237,96.674 232.445,89.469 C229.288,87.822 228.534,87.685 219.819,87.822 C213.438,87.891 210.35,87.685 210.007,87.136 C209.527,86.244 199.646,86.999 184.001,89.057 C175.492,90.155 168.219,90.292 134.734,89.949 C124.853,89.812 121.01,89.538 121.49,89.057 C121.902,88.646 124.304,88.165 126.911,88.028 C129.862,87.822 131.714,87.411 132.058,86.793 C132.332,86.244 133.018,85.832 133.499,85.832 C134.253,85.832 134.391,82.539 134.391,69.364 C134.391,53.651 134.322,52.827 133.018,51.867 C131.92,51.112 131.714,50.426 132.058,48.093 C132.263,46.515 132.95,44.662 133.567,43.976 C134.322,43.152 134.528,42.329 134.116,41.78 C133.842,41.3 133.567,40.133 133.567,39.241 C133.567,36.839 130.479,36.085 128.489,37.869 C127.666,38.624 127.049,39.584 126.98,40.064 C126.911,40.545 126.843,41.368 126.774,41.917 C126.637,42.466 126.568,44.593 126.5,46.515 C126.362,50.975 126.088,50.975 118.334,47.887 C112.639,45.691 111.815,44.868 113.668,43.289 C114.217,42.809 114.697,41.849 114.697,41.162 C114.697,40.408 115.04,39.859 115.384,39.859 C115.795,39.859 116.07,38.761 116.07,37.457 C116.07,35.398 115.864,35.055 114.423,35.055 C113.462,35.055 111.884,35.742 110.923,36.634 z" fill-opacity="0" stroke="#000000" stroke-width="1"/>
  </g>
</svg>
