<?xml version="1.0" encoding="UTF-8"?>
<!DOCTYPE svg PUBLIC "-//W3C//DTD SVG 1.1//EN" "http://www.w3.org/Graphics/SVG/1.1/DTD/svg11.dtd">
<svg version="1.1" xmlns="http://www.w3.org/2000/svg" xmlns:xlink="http://www.w3.org/1999/xlink" x="0" y="0" width="300" height="200" viewBox="0, 0, 300, 200">
  <g id="Layer_1">
    <path d="M197.253,36.068 C198.836,37.123 197.55,40.372 199.435,41.251 C203.527,43.161 209.856,39.56 213.62,40.214 C214.98,40.451 212.621,46.579 214.493,45.889 C217.603,44.743 220.222,42.779 221.149,44.797 C223.01,48.847 212.313,51.779 211.002,53.09 C209.957,54.135 210.288,56.284 208.819,57.019 C207.166,57.845 203.386,59.811 202.49,61.602 C200.583,65.416 203.145,69.076 200.199,73.55 C198.705,75.819 197.453,77.12 195.834,79.279 C194.646,80.862 191.63,82.501 190.269,83.862 C189.158,84.972 188.037,85.325 187.268,86.862 C185.249,90.9 186.929,98.204 186.232,100.993 C185.802,102.713 174.884,111.741 173.029,113.76 C170.421,116.598 169.209,118.288 160.589,119.98 C158.166,120.455 156.136,121.968 154.915,123.799 C153.497,125.925 153.947,138.059 155.351,140.166 C156.285,141.567 166.372,143.876 166.154,146.604 C165.88,150.027 159.771,147.531 158.625,148.678 C157.21,150.092 157.74,154.616 156.497,156.479 C156.004,157.219 153.172,156.859 152.405,157.625 C150.41,159.62 153.387,165.973 147.331,163.136 C146.45,162.723 146.731,162.099 146.84,160.735 C146.84,160.735 147.059,153.479 147.059,153.479 C146.895,149.823 146.019,149.341 146.295,145.349 C146.513,142.185 148.368,143.276 148.423,142.076 C148.842,132.857 148.968,128.436 148.804,126.199 C148.732,125.209 144.981,127.887 144.331,128.109 C135.219,131.219 136.814,134.739 132.764,142.84 C130.708,146.951 133.916,144.994 134.401,146.932 C134.912,148.976 133.82,153.154 135.056,155.006 C136.685,157.451 139.42,154.679 139.693,158.498 C139.906,161.481 135.296,159.338 134.728,160.189 C133.41,162.167 135.165,165.373 131.782,164.882 C127.715,164.291 126.988,155.55 125.671,155.879 C122.211,156.745 124.417,165.482 117.597,164.663 C110.359,163.795 126.271,138.057 124.58,135.802 C123.747,134.69 107.735,138.09 103.63,136.675 C102.047,136.129 99.824,135.71 98.828,134.383 C97.396,132.473 97.47,122.272 95.991,122.926 C91.299,124.999 83.254,130.049 80.442,128.273 C79.924,127.945 78.205,124.208 82.243,122.789 C83.915,122.202 82.133,120.361 83.443,119.87 C88.927,117.814 94.927,115.042 95.337,114.633 C97.135,112.834 98.701,112.147 100.847,110.759 C108.103,106.067 112.959,102.957 119.179,98.92 C127.202,93.712 136.31,88.518 144.167,82.989 C147.113,80.915 147.756,80.6 148.041,80.261 C149.732,78.242 149.568,76.71 149.568,76.005 C150.108,73.582 150.141,67.076 149.896,65.639 C148.477,57.346 148.15,56.037 150.114,51.126 C150.893,49.179 149.499,40.994 151.38,40.957 C166.7,40.651 165.39,41.742 165.347,38.687 z" fill-opacity="0" stroke="#000000" stroke-width="1" stroke-linecap="round" stroke-linejoin="round"/>
  </g>
</svg>
