<?xml version="1.0" encoding="UTF-8"?>
<!DOCTYPE svg PUBLIC "-//W3C//DTD SVG 1.1//EN" "http://www.w3.org/Graphics/SVG/1.1/DTD/svg11.dtd">
<svg version="1.1" xmlns="http://www.w3.org/2000/svg" xmlns:xlink="http://www.w3.org/1999/xlink" x="0" y="0" width="300" height="200" viewBox="0, 0, 300, 200">
  <g id="Layer_1">
    <path d="M185.194,77.026 C184.439,78.313 187.996,81.361 187.996,82.873 C187.996,84.331 183.735,86.765 183.214,88.851 C182.37,92.225 185.573,94.36 182.616,106.188 C180.003,116.639 187.697,128.659 187.697,139.067 C187.697,140.533 179.328,137.606 179.328,147.436 C179.328,149.871 178.726,164.478 177.235,165.968 C175.062,168.142 173.089,164.175 172.154,164.175 C171.546,164.175 170.673,165.479 170.062,165.071 C166.742,162.858 160.198,130.566 160.198,125.317 C160.198,123.844 159,114.258 157.209,114.258 C153.076,114.258 154.93,118.032 149.232,118.032 C143.993,118.032 136.529,113.174 135.688,114.856 C134.838,116.556 143.061,146.539 140.769,153.414 C139.808,156.298 133.733,156.496 131.802,159.392 C130.501,161.344 131.668,170.098 129.71,170.751 C126.065,171.966 120.613,168.871 118.053,167.164 C116.015,165.806 112.924,165.747 111.477,163.577 C103.242,151.225 101.22,131.973 104.901,117.247 C105.549,114.657 107.546,111.887 107.89,109.476 C108.166,107.543 108.552,98.031 107.292,97.818 C101.968,96.922 95.897,97.949 91.039,99.537 C89.439,100.06 90.539,103.923 89.265,104.768 C84.811,107.722 81.34,107.959 81.232,107.85 C79.824,106.443 79.975,101.641 78.71,99.911 C75.907,96.081 72.708,89.329 72.638,88.982 C71.89,85.24 79.025,87.064 76.206,85.563 C72.451,83.564 71.611,77.867 73.572,76.746 C77.24,74.65 89.638,75.531 96.55,77.306 C96.975,77.415 99.617,77.757 100.1,78.24 C102.748,80.888 106.921,78.148 110.561,79.361 C112.82,80.114 111.338,75.574 112.243,74.971 C113.617,74.055 116.357,75.186 117.38,74.504 C118.348,73.859 116.932,71.982 118.408,71.982 C126.976,71.982 155.29,71.333 162.309,68.993 C172.563,65.575 161.001,51.713 167.969,41.625 C168.707,40.558 167.647,38.958 168.567,38.038 C178.713,27.893 190.282,28.836 201.745,32.658 C201.95,32.726 201.852,35.184 203.24,35.647 C204.616,36.105 206.903,36.68 207.892,37.421 C209.292,38.472 210.828,43.934 210.881,43.96 C214.775,45.907 224.066,42.014 227.227,45.174 C228.153,46.101 228.525,50.65 228.441,51.526 C228.31,52.89 224.518,53.487 223.21,53.02 C221.161,52.288 224.269,59.964 221.155,61.52 C218.598,62.799 209.733,64.17 206.528,65.238 C204.922,65.773 207.344,68.994 204.436,69.722 C198.771,71.138 190.194,69.342 185.474,71.702 L185.194,77.026 z" fill-opacity="0" stroke="#000000" stroke-width="1" stroke-linecap="round" stroke-linejoin="round"/>
  </g>
</svg>
