<?xml version="1.0" encoding="UTF-8"?>
<!DOCTYPE svg PUBLIC "-//W3C//DTD SVG 1.1//EN" "http://www.w3.org/Graphics/SVG/1.1/DTD/svg11.dtd">
<svg version="1.1" xmlns="http://www.w3.org/2000/svg" xmlns:xlink="http://www.w3.org/1999/xlink" x="0" y="0" width="300" height="200" viewBox="0, 0, 300, 200">
  <g id="Layer_1">
    <path d="M182.553,76.027 C166.529,76.027 166.378,76.977 150.521,75.656 C144.013,75.113 118.543,75.437 113.006,76.821 C103.899,79.098 95.265,82.767 87.254,88.108 C86.985,88.287 64.169,112.084 64.045,112.27 C62.544,114.522 58.18,120.732 57.263,121.649 C56.304,122.608 55.764,124.011 55.143,125.252 C53.564,128.411 45.535,132.323 45.181,135.85 C44.81,136.221 43.538,138.553 42.426,139.665 C41.787,140.304 42.455,141.418 42.638,141.785 C42.905,142.319 41.917,142.675 41.79,143.056 C41.485,143.973 40.995,149.547 42.108,149.468 C45.937,149.194 47.302,147.056 48.864,146.209 C50.132,145.523 53.713,142.632 56.176,139.612 C57.22,138.333 58.498,138.38 59.753,137.148 C63.372,133.595 62.084,134.608 64.363,131.823 C67.224,128.326 69.882,126.084 71.675,122.497 C72.78,120.289 76.808,116.067 78.352,114.337 C82.962,109.171 89.142,103.979 94.884,99.156 C96.871,97.487 99.077,98.73 99.017,99.235 C98.858,100.587 100.491,106.416 100.607,107.501 C101.243,113.436 101.228,112.37 101.879,114.973 C102.478,117.372 103.044,117.544 103.044,121.437 C103.044,122.331 100.25,124.02 99.653,124.617 C98.698,125.571 97.658,128.581 96.686,129.068 C93.017,130.902 93.109,130.38 89.002,131.346 C86.3,131.982 90.115,132.618 89.002,140.407 C88.906,141.083 90.534,144.381 90.91,144.381 C94.459,144.381 95.427,143.255 97.957,140.725 C98.82,139.862 101.262,143.522 101.402,143.268 C102.753,140.804 106.989,134.918 107.124,134.684 C108.873,131.664 107.283,133.572 110.886,130.975 C111.527,130.513 110.822,134.221 110.939,135.002 C111.416,138.181 111.104,138.107 110.939,138.976 C109.827,144.858 111.349,154.407 112.052,155.111 C113.24,156.299 113.938,154.417 113.96,154.396 C114.693,153.663 115.21,149.808 115.708,149.309 C116.183,148.835 120.793,151.214 121.59,152.011 C121.84,152.261 125.346,152.865 125.564,152.647 C125.771,152.44 126.419,150.74 126.518,150.74 C127.47,150.74 128.904,151.534 129.856,151.534 C130.714,151.534 129.363,148.355 130.015,148.355 C130.766,148.355 131.623,148.232 131.287,147.56 C129.094,143.175 124.142,138.031 120.954,134.843 C120.337,134.226 120.12,134.022 119.365,133.519 C117.694,132.405 116.185,130.71 115.708,127.849 C115.405,126.03 115.39,121.718 115.39,121.808 C115.39,121.969 119.528,122.075 120.159,121.967 C125.14,121.119 127.498,121.331 128.108,121.331 C135.788,121.331 152.429,122.444 164.51,121.967 C168.626,121.805 181.088,122.578 181.996,122.603 C193.76,122.921 194.766,122.603 195.349,122.603 C199.088,122.603 198.052,122.603 201.867,122.762 C202.133,122.773 205.076,123.046 204.887,123.239 C201.151,127.054 204.627,139.403 204.569,140.248 C204.251,144.858 205.913,152.806 207.536,152.806 C207.631,152.806 208.414,153.639 208.808,153.442 C213.548,151.072 216.438,144.57 216.438,136.91 C216.438,135.932 216.283,134.109 215.856,133.254 C214.947,131.437 214.199,128.259 212.835,126.895 C212.482,126.542 210.667,123.284 211.087,122.444 C211.194,122.229 216.408,122.365 217.763,122.365 C218.059,122.365 217.922,126.708 217.922,127.16 C217.922,129.355 219.618,132.273 221.737,134.764 C222.512,135.674 226.188,142.339 226.188,143.268 C226.188,145.015 226.637,145.541 227.221,146.368 C228.175,147.719 228.656,146.855 228.732,146.871 C230.48,147.242 229.288,144.143 229.765,141.281 C229.833,140.875 232.149,143.507 232.971,144.54 C233.583,145.31 233.424,141.514 233.898,140.566 C234.492,139.377 232.733,130.175 232.547,128.564 C232.308,126.498 229.878,122.967 230.798,122.762 C231.513,122.603 234.534,123.398 234.878,122.073 C235.677,119.001 236.067,115.88 235.964,112.429 C235.805,107.104 235.09,107.113 235.09,103.13 C235.09,101.726 233.714,99.603 234.454,98.123 C234.682,97.667 236.435,98.2 236.918,98.361 C237.866,98.677 241.54,99.031 242.402,98.599 C244.823,97.389 255.358,97.328 257.822,94.625 C258.924,93.417 259.491,88.397 259.491,86.836 C259.491,79.418 260.375,76.204 256.709,68.873 C256.059,67.573 254.724,66.414 254.245,64.979 C253.563,62.931 250.583,61.071 250.033,59.971 C249.402,56.166 250.669,55.689 250.669,52.897 C250.669,50.8 251.06,46.93 249.715,45.585 C249.402,45.272 246.643,45.875 246.536,45.982 C246.229,46.289 246.215,48.005 246.112,48.314 C245.042,51.522 241.684,54.603 240.601,57.852 C240.307,58.733 241.106,60.607 240.177,60.607 C239.545,60.607 238.863,59.824 238.587,59.256 C237.236,56.474 237.344,54.015 236.362,51.069 C235.986,49.942 236.097,49.108 236.044,49.003 C235.954,48.822 231.889,48.512 231.831,48.923 C231.196,53.454 230.507,57.852 229.844,62.117 C229.716,62.945 231.425,66.437 231.355,66.648 C231.038,67.597 229.789,68.69 229.288,69.191 C228.141,70.338 227.52,72.205 226.4,73.324 C220.615,79.11 205.956,76.42 200.118,76.927 L182.553,76.027 z" fill-opacity="0" stroke="#000000" stroke-width="1" stroke-linecap="round" stroke-linejoin="round"/>
  </g>
</svg>
