<?xml version="1.0" encoding="UTF-8"?>
<!DOCTYPE svg PUBLIC "-//W3C//DTD SVG 1.1//EN" "http://www.w3.org/Graphics/SVG/1.1/DTD/svg11.dtd">
<svg version="1.1" xmlns="http://www.w3.org/2000/svg" xmlns:xlink="http://www.w3.org/1999/xlink" x="0" y="0" width="646.435" height="863.922" viewBox="0, 0, 129.287, 172.784">
  <g id="Layer_2" transform="translate(-16.407, -9.979)">
    <path d="M72.375,13.5 C76.375,13.625 85.121,13.375 91.125,13.375 C92.454,13.375 91.535,13.062 93.313,12.562 C93.918,12.392 96.049,12.948 98.063,12 C99.125,11.5 103.153,11.19 104.438,11.875 C106.313,12.875 104.866,13.904 106.75,14.375 C106.75,14.375 110.25,14.687 110.25,14.687 C113.875,14.5 114.244,14.557 115.063,15.437 C115.875,16.312 117.031,15.429 118.375,15.812 C120.085,16.3 121.463,17.713 122.625,18.875 C122.941,19.191 123.438,20 123.625,22.062 C123.686,22.738 121.997,22.591 122.1,22.9 C122.1,22.9 122.1,22.9 122.1,22.9 C122.484,24.053 122.554,25.59 122.375,27.375 C122.35,27.622 121.784,27.497 121.75,27.75 C121.524,29.427 121.639,31.541 121.1,32.5 C119.625,35.125 112.531,31.679 112.625,33.375 C112.808,36.664 111.813,52.75 111.375,59.5 C111.303,60.612 108.871,59.505 108.688,60.5 C108.417,61.967 108.885,62.49 108.438,62.937 C106.907,64.468 102.08,63.258 101.875,64.812 C101.563,67.188 99.758,66.414 97.625,67.125 C96.669,67.444 92.813,65.567 92.813,67.688 C92.813,69.312 95.491,74.872 95.875,75 C98.599,75.908 107.98,74.537 114,74.687 C117.597,74.777 116.201,75.442 118.063,76.062 C119.259,76.461 122.349,76.018 123.313,76.5 C124.636,77.162 123.688,78.107 124.625,78 C125.515,77.898 128.4,77.308 129.25,77.062 C130.488,76.705 131.643,75.972 133.125,75.75 C135.614,75.377 142.719,75.25 143.5,76.312 C144.139,77.182 143.563,77.469 144.156,77.781 C144.156,77.781 144.759,77.969 145.031,78.562 C145.424,79.42 145.053,80.235 144.469,80.625 C143.719,81.125 143.672,81.312 141.938,81.875 C140.608,82.307 140.725,82.485 140.125,83.062 C139.281,83.875 139.5,86.062 139.438,86.594 C139.375,87.125 138.625,87.219 138.531,87.594 C138.438,87.969 137.799,88.843 136.563,89.625 C134.094,91.188 130.174,92.031 127.75,93.562 C126.562,94.312 129.356,100.548 125.3,101.9 C118.329,104.224 110.272,105.347 103.344,107.656 C101.773,108.18 104.17,108.341 105.125,110.25 C105.438,110.877 105.711,119.218 105.688,120.156 C105.625,122.656 106.301,132.899 104.9,134.3 C103.639,135.561 99.284,131.393 97.156,132.781 C96.084,133.481 96.594,134.362 96.594,138.688 C96.594,140.649 100.152,141.154 101.906,142.031 C102.456,142.947 101.619,143.728 102.719,143.781 C104.656,143.875 104.281,146.738 104.281,147.344 C104.281,150.026 104.172,154.749 103.062,156.969 C101.927,159.239 97.911,156.652 96.812,157.75 C96.194,158.369 96.844,160.35 95.719,160.469 C95.719,160.469 95.719,160.469 95.719,160.469 C93.516,160.701 88.341,159.856 85.094,158.469 C83.965,157.986 85.219,156.75 83.156,156.594 C80.623,156.402 81.562,152.469 80.656,149.031 C80.353,147.881 80.539,144.348 79.281,143.719 C78.844,143.5 78.159,143.373 77.875,143.688 C75.634,146.17 74.669,149.751 71.344,150.719 C67.156,151.938 68.42,150.875 62.531,157.031 C58.406,161.344 57.5,166.3 56.719,170 C56.412,171.455 53.153,169.264 52.188,171.312 C48.125,179.937 47.688,182.781 45.219,182.188 C34.875,179.7 29.406,159.781 36.781,151.094 C38.584,148.97 42.034,146.44 43.531,144.375 C44.411,143.162 44.281,141.107 44.281,139.656 C44.281,139.494 36.222,139.116 32.875,138 C27.421,136.182 30.25,126.5 30.125,120 C30.081,117.702 23.159,124.559 21.7,123.1 C19.311,120.711 18.95,115.517 18.3,112.7 C17.7,110.1 17.57,103.63 19.5,101.7 C27.077,94.123 43.229,79.736 52.5,75.1 C56.488,73.106 58.875,72.375 63.5,71.125 C64.322,70.903 63.971,69.991 64.188,69.125 C64.188,69.125 64.813,68.125 64.813,68.125 C64.813,68.125 67,67.688 67,67.688 C67.036,67.544 66.851,67.619 66.875,66.125 C66.883,65.632 66.057,65.648 66.063,65.062 C66.092,61.981 65.067,55.367 65,52 C64.991,51.558 63.902,51.58 63.5,51.375 C63.101,51.172 62.951,50.553 62.938,50.187 C62.913,49.527 65.855,50.11 65.822,49.622 C65.769,48.819 65.704,48.283 65.625,48.125 C64.898,46.67 64.188,48.187 62.938,47.312 C62.577,47.06 62.938,45.875 62.875,44.562 C62.814,43.289 64.955,43.588 64.688,43 C64.063,41.625 66.063,34.625 65.938,32.5 C65.895,31.77 64.563,33.187 64.375,32.125 C63.961,29.779 63.906,28.883 64.688,28.75 C67.25,28.312 67.438,28.345 67.438,23.312 C67.438,21.703 68.907,23.192 69.5,22.312 C71.188,19.813 69.276,21.134 69,20.062 C68.667,18.769 68.32,18.044 68.25,17.625 C68,16.125 69.5,16.75 72,16.625 z" fill-opacity="0" stroke="#000000" stroke-width="0.25" stroke-linecap="round" stroke-linejoin="round"/>
  </g>
</svg>
