<?xml version="1.0" encoding="UTF-8"?>
<!DOCTYPE svg PUBLIC "-//W3C//DTD SVG 1.1//EN" "http://www.w3.org/Graphics/SVG/1.1/DTD/svg11.dtd">
<svg version="1.1" xmlns="http://www.w3.org/2000/svg" xmlns:xlink="http://www.w3.org/1999/xlink" x="0" y="0" width="300" height="200" viewBox="0, 0, 300, 200">
  <g id="Layer_1">
    <path d="M132.086,130.509 C133.995,137.617 121.13,157.17 125.811,159.458 C133.563,163.248 133.195,152.593 137.633,156.026 C139.554,157.511 134.568,163.452 133.923,165.386 C132.78,168.818 122.587,164.554 118.426,162.058 C117.344,161.408 117.802,160.082 118.114,158.21 C118.815,154.003 120.753,146.479 122.379,141.603 C122.786,140.382 125.825,133.916 124.875,133.282 C124.529,133.052 121.888,134.914 121.269,135.224 C109.167,141.275 117.961,136.865 113.434,148.433 C110.626,155.61 105.573,165.897 100.745,170.725 C100.058,171.412 105.106,171.557 105.737,171.557 C107.485,171.557 111.354,170.691 112.116,174.886 C112.348,176.16 109.013,176.307 108.233,176.827 C107.053,177.614 107.031,179.508 105.737,180.155 C102.576,181.736 98.041,175.579 95.232,175.475 C92.715,175.382 91.176,180.259 86.6,177.659 C85.569,177.074 85.115,174.463 86.184,173.395 C88.727,170.852 96.53,166.951 97.971,164.069 C100.005,160.001 102.899,155.644 104.697,151.449 C106.257,147.809 106.881,145.937 106.985,144.169 C107.196,140.595 94.897,152.685 90.76,150.617 C90.042,150.258 80.552,136.289 82.023,134.704 C83.375,133.248 82.543,132.52 81.815,130.024 C80.088,124.102 72.138,126.241 71.727,125.967 C68.652,123.918 64.196,116.109 65.798,111.302 C66.159,110.218 70.787,110.204 72.039,110.158 C77.655,109.95 81.607,108.993 85.768,108.875 C99.185,108.494 98.665,105.686 103.137,103.71 C104.955,102.906 101.88,102.551 107.124,99.168 C115.722,93.621 124.691,88.094 133.507,82.804 C137.426,80.453 141.308,75.835 144.844,73.929 C146.112,73.245 162.012,64.615 161.694,63.978 C161.573,63.737 158.033,64.374 157.429,63.77 C155.505,61.846 156.618,55.617 155.765,53.058 C155.339,51.78 155.477,47.993 155.973,46.505 C156.267,45.624 161.625,45.223 161.208,44.806 C160.329,43.927 162.196,42.033 159.093,42.033 C158.157,42.033 158.657,24.726 159.489,24.393 C161.4,23.628 169.456,22.022 172.025,21.508 C174.785,20.956 200.257,19.897 201.591,21.231 C202.887,22.527 201.389,23.62 201.979,25.391 C202.349,26.499 203.205,26.34 203.921,27.056 C204.841,27.975 201.722,32.563 203.422,32.714 C208.809,33.192 207.457,33.192 209.08,33.546 C210.557,33.868 208.325,36.179 210.411,36.874 C212.782,37.664 235.539,36.176 235.539,38.427 C235.539,39.838 234.061,41.569 233.321,42.31 C232.944,42.687 201.119,49.596 197.68,53.578 C195.704,55.866 198.719,59.3 196.224,63.042 C194.799,65.181 188.164,62.708 191.336,66.787 C195.704,72.403 199.006,81.817 195.6,88.628 C195.234,89.362 196.164,91.119 195.323,91.679 C193.739,92.735 190.578,91.699 188.944,92.789 C185.794,94.888 182.744,96.645 179.791,98.613 C177.434,100.184 180.095,101.083 176.74,104.438 C175.371,105.807 154.724,117.728 150.114,120.801 L132.086,130.509 z" fill-opacity="0" stroke="#000000" stroke-width="1" stroke-linecap="round" stroke-linejoin="round"/>
  </g>
</svg>
