<?xml version="1.0" encoding="UTF-8"?>
<!DOCTYPE svg PUBLIC "-//W3C//DTD SVG 1.1//EN" "http://www.w3.org/Graphics/SVG/1.1/DTD/svg11.dtd">
<svg version="1.1" xmlns="http://www.w3.org/2000/svg" xmlns:xlink="http://www.w3.org/1999/xlink" x="0" y="0" width="300" height="200" viewBox="0, 0, 300, 200">
  <g id="Layer_1">
    <path d="M123.498,54.83 C127.873,52.58 137.864,60.33 145.123,60.33 C151.361,60.33 138.778,54.447 142.373,54.58 C145.748,54.705 160.749,55.575 164.748,55.705 C180.123,56.205 193.123,56.58 206.498,56.955 C212.268,57.117 231.068,56.81 231.748,57.83 C232.435,58.861 231.561,64.577 231.248,65.83 C230.518,68.751 230.971,76.063 228.123,77.08 C222.873,78.955 204.998,78.83 202.498,79.33 C200.631,79.703 203.623,82.83 196.248,82.58 C192.22,82.443 172.271,82.633 168.248,83.58 C163.998,84.58 173.373,105.33 169.998,111.33 C168.315,114.321 164.233,119.118 163.248,121.58 C161.998,124.705 166.864,128.589 164.748,130.705 C162.633,132.82 158.997,129.914 157.248,131.08 C157.206,131.108 161.26,137.689 158.498,137.33 C148.873,136.08 152.123,129.58 144.748,132.83 C143.08,133.565 142.635,135.796 140.498,136.33 C138.267,136.888 135.961,135.705 133.748,136.08 C117.498,138.83 115.998,140.705 103.748,140.33 C101.169,140.251 93.88,146.58 93.498,146.58 C92.114,146.58 88.717,144.072 87.498,143.33 C79.498,138.455 89.449,137.256 88.123,131.955 C87.078,127.773 83.714,124.191 82.748,120.33 C82.231,118.262 83.46,115.928 82.998,114.08 C82.723,112.98 81.255,112.553 81.498,111.58 C82.014,109.516 83.328,107.84 83.998,105.83 C84.445,104.49 82.38,101.684 82.748,100.58 C83.062,99.639 86.191,98.149 82.748,98.33 C73.248,98.83 74.116,97.076 71.623,95.83 C70.022,95.029 68.189,92.658 69.373,92.455 C77.373,91.08 82.426,94.623 87.498,91.58 C93.123,88.205 97.353,84.554 103.248,83.08 C109.292,81.569 125.873,81.83 131.248,80.955 C132.956,80.677 130.845,76.611 130.748,75.33 C130.248,68.705 133.873,66.705 125.873,66.205 L123.498,54.83 z" fill-opacity="0" stroke="#000000" stroke-width="1" stroke-linecap="round" stroke-linejoin="round"/>
  </g>
</svg>
