<?xml version="1.0" encoding="UTF-8"?>
<!DOCTYPE svg PUBLIC "-//W3C//DTD SVG 1.1//EN" "http://www.w3.org/Graphics/SVG/1.1/DTD/svg11.dtd">
<svg version="1.1" xmlns="http://www.w3.org/2000/svg" xmlns:xlink="http://www.w3.org/1999/xlink" x="0" y="0" width="300" height="200" viewBox="0, 0, 300, 200">
  <g id="Layer_1">
    <path d="M146.406,77.523 C147.766,74.454 143.74,64.915 146.126,61.335 C150.75,54.4 165.988,58.259 165.988,44.223 C165.988,34.029 167.561,22.267 160.488,15.194 C154.329,9.036 115.312,23.091 109.764,28.639 C108.072,30.331 106.992,38.2 106.403,40.556 C102.9,54.569 110.598,71.22 115.875,71.724 C121.916,72.301 128.404,65.003 131.154,67.752 C132.024,68.622 131.462,71.735 131.765,72.947 C132.236,74.831 132.725,78.927 132.07,80.891 C131.372,82.986 122.324,86.842 120.459,87.308 C115.898,88.448 113.747,84.042 110.681,86.086 C101.022,92.525 79.189,116.93 90.819,128.56 C95.997,133.738 103.847,121.42 105.486,123.06 C108.185,125.759 107.708,131.558 108.847,134.977 C110.736,140.644 115.984,144.273 117.403,149.949 C119.941,160.103 111.757,180.739 123.514,186.618 C135.813,192.767 131.225,157.608 132.987,150.561 C135.102,142.102 149.357,136.033 156.624,132.525 C167.701,127.177 163.117,180.079 182.489,166.756 C191.361,160.654 169.245,128.872 170.877,123.976 C172.006,120.59 174.326,117.822 175.155,114.504 C176.958,107.294 171.27,97.922 178.211,94.642 C187.562,90.223 208.761,90.796 213.046,84.253 C216.1,79.587 203.171,74.88 199.906,75.697 C193.514,77.295 176.714,74.78 168.738,74.78 C166.716,74.78 163.694,75.552 162.016,74.78 C152.613,70.456 155.036,76.454 153.091,77.427 L146.406,77.523 z" fill-opacity="0" stroke="#000000" stroke-width="1" stroke-linecap="round" stroke-linejoin="round"/>
  </g>
</svg>
