<?xml version="1.0" encoding="UTF-8"?>
<!DOCTYPE svg PUBLIC "-//W3C//DTD SVG 1.1//EN" "http://www.w3.org/Graphics/SVG/1.1/DTD/svg11.dtd">
<svg version="1.1" xmlns="http://www.w3.org/2000/svg" xmlns:xlink="http://www.w3.org/1999/xlink" x="0" y="0" width="300" height="200" viewBox="0, 0, 300, 200">
  <g id="Layer_1">
    <path d="M71,150.326 C73.44,149.327 76.029,148.577 78.544,147.782 C80.61,147.128 83.509,146.301 85.496,145.873 C90.464,144.805 102.284,144.303 106.943,145.555 C108.152,145.88 121.659,145.756 122.326,145.873 C125.506,146.43 137.582,145.193 140.667,145.396 C144.291,145.635 152.991,144.612 154.349,144.999 C156.864,145.714 159.082,146.128 178.533,145.555 C180.267,145.504 191.72,145.563 193.916,145.428 C198.057,145.174 208.249,145.151 212.849,144.601 C217.508,144.044 232.551,146.763 234.444,142.693 C235.172,141.128 234.888,137.365 235.184,134.979 C235.378,133.414 235.95,130.665 235.036,128.698 C234.296,127.107 216.015,127.92 212.553,128.061 C206.71,128.3 207.992,123.335 207.006,123.29 C203.456,123.131 174.496,122.059 171.729,122.654 C164.931,124.116 153.879,123.495 145.401,124.324 C142.96,124.563 142.146,123.688 139.78,123.847 C138.528,123.931 139.592,119.86 139.336,118.758 C139.185,118.106 138.27,114.801 138.301,114.703 C139.015,112.397 151.801,114.493 153.684,113.987 C156.601,113.203 155.475,110.88 157.308,110.25 C162.854,108.341 169.51,115.418 170.546,115.1 C177.77,112.881 167.6,109.527 169.067,108.739 C169.329,108.598 194.334,108.977 196.874,108.977 C198.557,108.977 205.66,107.291 206.932,108.659 C207.978,109.783 212.064,110.779 214.032,110.25 C215.645,109.816 216.958,108.891 217.878,107.705 C218.987,106.274 222.53,106.826 223.129,107.148 C223.89,107.558 223.608,108.811 224.608,108.898 C227.344,109.136 227.252,105.558 226.974,104.365 C226.297,101.453 222.61,100.6 221.132,98.481 C220.294,97.28 221.145,95.639 220.54,94.664 C220.042,93.861 218.421,92.047 217.508,91.802 C214.631,91.028 212.405,90.927 208.781,90.927 C207.859,90.927 202.432,90.836 201.755,91.563 C201.363,91.985 202.148,93.137 201.459,93.63 C201.34,93.716 187.072,93.031 186.816,92.756 C185.836,91.702 186.677,87.308 186.298,85.679 C186.054,84.629 185.477,82.805 184.819,81.862 C181.679,77.361 174.377,76.59 169.732,75.342 C168.037,74.886 168.92,70.571 167.144,69.298 C163.425,66.633 159.009,66.515 154.053,66.277 C151.899,66.173 151.514,65.27 152.5,64.209 C154.285,62.29 155.385,60.452 157.529,58.722 C158.72,57.763 161.378,56.448 163.89,56.178 C164.629,56.098 163.076,51.964 160.636,51.486 C159.778,51.319 157.554,52.182 156.938,52.679 C154.634,54.537 151.956,55.173 149.838,57.45 C149.409,57.911 148.802,60.948 147.915,60.313 C144.952,58.189 143.773,53.554 141.185,51.009 C140.402,50.239 137.635,50.93 136.748,51.725 C135.721,52.645 133.011,53.225 132.828,54.747 C132.532,57.212 139.59,55.815 140.519,56.814 C141.259,57.609 142.146,60.313 142.886,61.108 C143.466,61.731 144.618,63.484 143.921,64.607 C143.319,65.578 136.219,65.067 134.973,65.402 C133.888,65.693 133.835,65.122 132.532,65.402 C132.177,65.478 129.722,65.825 129.722,66.436 C129.722,67.048 130.352,67.545 130.018,68.265 C129.887,68.546 127.425,68.166 127.059,68.265 C125.73,68.622 124.471,67.867 123.805,70.173 C123.524,71.148 120.068,70.444 119.22,70.809 C118.009,71.33 119.451,73.331 118.185,73.672 C117.598,73.829 116.087,73.797 115.596,74.149 C114.632,74.84 116.41,76.693 113.895,76.852 C111.933,76.976 114.59,78.888 113.821,79.715 C113.03,80.566 109.844,80.367 108.718,80.669 C107.296,81.052 107.674,83.432 106.647,84.168 C105.923,84.687 104.585,83.761 103.985,84.407 C103.367,85.071 104.627,85.36 103.985,86.394 C103.018,87.954 97.892,86.266 96.294,87.985 C93.636,90.842 98.358,93.723 97.181,96.255 C96.902,96.854 95.847,96.417 95.406,96.891 C94.255,98.128 95.499,101.409 94.223,101.344 C92.67,101.264 88.848,100.319 87.419,101.344 C85.872,102.453 87.319,103.996 86.531,104.842 C86.068,105.34 84.43,104.44 83.869,104.842 C83.046,105.432 84.542,108.081 83.795,108.58 C81.65,110.011 79.8,108.462 77.878,110.011 C76.478,111.141 78.559,113.949 77.287,114.862 C76.528,115.406 75.318,114.433 74.55,115.259 C73.432,116.461 75.825,119.455 74.624,120.746 C74.316,121.078 72.488,121.579 72.036,121.7 C70.632,122.077 71.638,123.137 71.148,123.927 C70.641,124.745 68.767,123.942 68.19,124.563 C66.546,126.33 69.848,132.226 68.486,134.423 C66.208,138.097 64.27,134.184 66.341,142.693 C66.618,143.832 66.803,146.609 67.451,147.305 C68.275,148.191 68.683,149.266 69.373,150.008 L71,150.326 z" fill-opacity="0" stroke="#000000" stroke-width="1" stroke-linecap="round" stroke-linejoin="round"/>
  </g>
</svg>
