<?xml version="1.0" encoding="UTF-8"?>
<!DOCTYPE svg PUBLIC "-//W3C//DTD SVG 1.1//EN" "http://www.w3.org/Graphics/SVG/1.1/DTD/svg11.dtd">
<svg version="1.1" xmlns="http://www.w3.org/2000/svg" xmlns:xlink="http://www.w3.org/1999/xlink" x="0" y="0" width="300" height="200" viewBox="0, 0, 300, 200">
  <g id="Layer_1">
    <g>
      <path d="M121.953,116.257 C101.001,113.711 107.362,95.803 106.037,90.501 C105.446,88.138 102.638,84.591 102.13,82.109 C100.828,75.742 100.712,61.854 104.445,56.498 C107.773,51.723 109.943,50.565 112.403,47.816 C116.616,43.108 112.548,44.199 119.349,37.687 C120.439,36.643 124.746,35.057 126.005,35.372 C128.146,35.908 135.138,38.766 137.146,39.424 C142.446,41.158 146.802,49.048 153.642,53.315 C157.072,55.454 162.1,55.071 166.375,54.906 C170.137,54.761 174.767,53.604 177.806,50.565 C180.05,48.321 169.413,23.797 186.488,23.362 C190.361,23.264 193.012,31.557 194.88,34.359 C196.216,36.364 198.597,35.717 199.51,37.543 C200.753,40.028 195.365,40.99 193.867,41.739 C187.633,44.856 192.565,46.514 193.722,50.71 C194.256,52.644 190.986,53.631 189.671,54.617 C187.894,55.949 190.752,57.626 189.671,59.247 C188.905,60.396 187.286,59.676 186.488,61.273 C185.228,63.793 187.488,66.349 185.185,68.652 C181.618,72.22 181.568,67.35 177.951,70.678 C174.995,73.397 173.638,74.557 171.15,77.045 C170.316,77.878 161.746,85.147 160.876,85.582 C159.943,86.048 158.492,85.821 157.548,86.45 C156.152,87.381 160.168,89.648 160.732,90.212 C162.354,91.834 159.214,94.631 159.574,95.71 C160.496,98.476 163.677,97.667 161.021,101.209 C159.739,102.919 157.844,103.807 156.391,105.26 C155.209,106.443 153.139,107.972 151.616,108.733 C148.162,110.46 145.086,110.253 143.658,115.968 C143.404,116.984 145.452,116.634 145.973,117.415 C146.785,118.633 147.54,122.54 147.42,123.926 C146.841,130.582 147.339,136.723 148.216,137.6 C148.822,138.206 152.012,137.293 152.122,138.251 C153.569,150.767 157.187,151.129 159.068,153.95 C160.604,156.255 162.975,147.584 168.256,149.248 C171.479,150.263 165,157.496 164.204,157.93 C162.071,159.093 164.793,161.896 164.928,164.586 C165,166.033 159.646,167.986 158.344,167.697 C154.434,166.828 142.962,142.881 141.342,142.881 C140.321,142.881 142.5,152.41 142.5,153.299 C142.5,156.311 143.658,160.31 143.658,161.692 C143.658,166.027 148.071,160.753 148.288,161.402 C148.451,161.892 148.794,162.994 148.939,164.369 C149.029,165.221 149.527,167.153 149.156,168.637 C148.113,172.811 146.045,176.523 140.691,177.536 C138.047,178.036 139.1,176.595 138.159,175.583 C137.74,175.132 135.822,176.117 135.265,175.004 C134.298,173.07 136.832,169.314 137.291,167.48 C137.776,165.54 136.39,163.009 135.916,161.113 C134.995,157.426 136.749,151.908 134.397,148.38 C131.859,144.572 129.26,139.409 128.971,135.212 C128.883,133.93 125.909,134.828 124.992,133.91 C122.216,131.135 123.08,127.757 125.354,126.241 C127.504,124.807 122.894,118.467 122.894,116.402 L121.953,116.257 z" fill-opacity="0" stroke="#000000" stroke-width="1" stroke-linecap="round" stroke-linejoin="round"/>
      <path d="M137.544,132.535 C136.459,131.884 135.193,126.486 135.193,124.867 C135.193,124.084 131.613,117.779 134.035,118.536 C135.772,119.079 135.89,123.928 136.133,124.577 C137.327,127.761 138.268,128.375 138.304,132.318 z" fill-opacity="0" stroke="#000000" stroke-width="1" stroke-linecap="round" stroke-linejoin="round"/>
      <path d="M186.198,35.481 C186.198,36.26 186.064,37.47 185.764,37.47 C185.464,37.47 185.113,36.26 185.113,35.481 C185.113,34.702 185.356,34.07 185.656,34.07 C185.955,34.07 186.198,34.702 186.198,35.481 z" fill-opacity="0" stroke="#000000" stroke-width="1"/>
    </g>
  </g>
</svg>
