<?xml version="1.0" encoding="UTF-8"?>
<!DOCTYPE svg PUBLIC "-//W3C//DTD SVG 1.1//EN" "http://www.w3.org/Graphics/SVG/1.1/DTD/svg11.dtd">
<svg version="1.1" xmlns="http://www.w3.org/2000/svg" xmlns:xlink="http://www.w3.org/1999/xlink" x="0" y="0" width="300" height="200" viewBox="0, 0, 300, 200">
  <g id="Layer_1">
    <path d="M68.921,92.219 C77.375,89.54 87.143,90.858 96.211,89.85 C97.852,89.668 100.079,89.954 101.711,89.727 C104.368,89.356 107.036,89.598 109.785,89.418 C121.113,88.676 146.879,88.738 158.434,88.862 C162.704,88.907 173.465,89.518 177.835,89.727 C181.728,89.912 186.107,90.253 189.39,90.839 C198.041,92.384 200.698,91.58 209.533,91.58 C211.511,91.58 219.173,91.086 221.15,91.086 C221.644,91.086 223.062,90.685 222.653,90.406 C221.026,89.294 220.347,86.266 220.717,83.609 C221.031,81.364 220.888,80.852 222.139,78.975 C222.558,78.345 223.312,77.617 223.56,76.874 C224.453,74.195 226.814,72.165 227.143,70.078 C227.329,68.904 227.02,66.803 227.143,63.899 C227.181,63.027 225.941,60.385 226.031,59.512 C226.711,52.962 226.139,57.156 229.183,52.591 C229.725,51.777 229.328,50.881 230.357,50.367 C231.822,49.634 231.41,51.073 231.716,51.685 C231.982,52.217 233.891,51.813 234.187,52.406 C235.087,54.205 235.783,58.999 237.339,59.388 C241.686,60.475 239.204,56.951 239.192,56.916 C238.963,56.229 239.073,55.862 239.295,55.639 C239.545,55.39 238.218,51.822 240.305,52.097 C245.001,52.715 243.1,56.743 245.227,57.452 C246.755,57.961 248.523,56.401 250.129,56.916 C253.404,57.967 252.354,57.843 252.807,58.605 C253.369,59.551 250.785,66.647 250.335,67.997 C250.168,68.5 252.568,70.577 252.807,71.293 C253.026,71.949 253.001,74.123 253.466,74.588 C254.744,75.867 255.188,77.373 255.937,78.872 C256.252,79.501 258.01,79.485 258.574,79.861 C260.547,81.176 262.672,83.443 263.682,85.463 C265.004,88.107 259.488,89.418 259.068,89.418 C255.936,89.418 249.77,88.429 246.793,88.429 C246.472,88.429 244.609,88.944 244.383,89.17 C243.872,89.681 243.258,90.732 241.932,91.395 C240.409,92.156 235.16,92.219 234.352,92.219 C234.043,92.219 235.374,93.706 235.423,93.805 C236.024,95.006 233.929,95.488 234.991,96.709 C237.462,99.551 236.567,99.921 236.35,100.354 C234.344,104.366 234.002,104.865 231.345,105.915 C230.631,106.198 231.409,109.147 230.357,109.129 C226.896,109.067 227.128,113.145 226.114,113.145 C225.323,113.145 222.819,113.639 221.83,114.628 C220.875,115.583 221.528,117.703 221.006,118.747 C220.362,120.035 220.182,121.249 220.182,123.031 C220.182,123.427 220.293,123.789 220.47,124.143 C221.209,125.621 221.362,126.076 221.83,127.48 C222.299,128.888 219.42,137.38 219.523,138.684 C219.914,143.669 219.914,138.787 220.903,145.028 C221.166,146.688 215.326,143.977 215.074,142.969 C214.446,140.457 214.434,133.519 215.239,131.105 C215.377,130.692 217.42,124.349 216.227,124.349 C207.474,124.349 211.12,132.614 209.636,136.048 C208.854,137.861 209.595,139.689 209.595,141.383 C209.595,142.035 209.885,143.117 210.09,143.731 C210.096,143.75 209.634,144.287 209.472,144.287 C208.61,144.287 207.789,143.422 207,143.422 C202.627,143.422 205.048,128.355 204.364,126.986 C204.177,126.612 203.366,127.072 202.881,127.315 C202.27,127.621 200.527,127.165 199.75,127.15 C194.395,127.047 189.73,126.907 185.065,126.615 C177.156,126.121 163.13,125.503 156.086,125.441 C151.267,125.399 142.757,125.103 138.043,125.626 C134.629,126.006 126.55,124.885 118.641,124.885 C118.194,124.885 109.249,124.885 102.514,126.368 C100.009,126.919 93.699,127.281 90.774,126.306 C90.38,126.175 86.407,125.967 86.263,126.182 C84.178,129.311 83.05,132.114 81.691,135.883 C81.463,136.514 77.675,145.214 77.304,150.836 C73.648,149.889 74.338,149.539 73.72,149.23 C72.966,148.853 73.549,145.975 73.658,145.646 C74.378,143.487 74.646,140.645 75.203,138.417 C75.978,135.316 76.951,132.969 77.736,129.828 C78.013,128.723 79.139,127.69 78.601,126.615 C78.585,126.582 76.321,126.077 76.192,126.121 C75.382,126.39 74.412,125.614 73.864,126.162 C72.609,127.417 67.288,137.322 66.182,140.827 C65.811,142.001 64.307,148.537 64.204,148.55 C62.722,148.736 61.588,148.455 60.25,148.55 C59.385,148.612 59.714,145.811 59.756,145.152 C60.068,140.157 60.931,139.422 62.33,135.224 C63.004,133.202 62.413,133.597 63.772,131.435 C64.749,129.881 67.055,128.492 66.491,126.8 C66.348,126.372 64.927,126.857 64.699,125.688 C63.71,120.621 62.783,120.869 61.98,117.655 C61.736,116.678 60.885,113.526 61.177,112.65 C62.105,109.867 59.879,108.706 59.879,106.719 C59.879,105.555 58.949,99.053 58.705,98.81 C58.045,98.15 50.193,104.75 49.622,105.606 C49.35,106.014 46.449,108.16 46.78,108.325 C47.855,108.863 49.64,109.278 48.757,111.044 C47.35,113.859 44.366,114.755 43.32,115.802 C42.598,116.523 43.264,118.599 42.084,118.768 C40.354,119.015 40.354,118.644 38.994,117.285 C38.603,116.894 37.964,116.811 37.511,116.358 C35.566,114.412 41.439,110.898 40.724,109.808 C38.376,106.224 42.308,103.94 45.112,101.837 C50.964,97.448 50.418,96.589 57.346,93.125 L68.921,92.219 z" fill-opacity="0" stroke="#000000" stroke-width="1" stroke-linecap="round" stroke-linejoin="round"/>
  </g>
</svg>
